<?xml version="1.0"?>
<svg xmlns="http://www.w3.org/2000/svg" xmlns:xlink="http://www.w3.org/1999/xlink" xmlns:svgjs="http://svgjs.com/svgjs" version="1.1" width="512" height="512" x="0" y="0" viewBox="0 0 396.88 396.88" style="enable-background:new 0 0 512 512" xml:space="preserve" class=""><g>
<path xmlns="http://www.w3.org/2000/svg" style="" d="M194.96,278.44h-2c-40.153-2.573-72.147-34.567-74.72-74.72v-2v-3.28v-3.28v-2  c2.573-40.153,34.567-72.147,74.72-74.72h2h3.28h3.28h2c40.153,2.573,72.147,34.567,74.72,74.72v2v3.28v3.28v2  c-2.573,40.153-34.567,72.147-74.72,74.72h-2h-3.28H194.96z" fill="#ffffff" data-original="#ffffff" class=""/>
<g xmlns="http://www.w3.org/2000/svg">
	<path style="" d="M63.76,201.72v-8c2.707-70.336,59.104-126.733,129.44-129.44h8v60.8l-7.52,0.4   c-37.15,2.169-66.791,31.81-68.96,68.96l-0.4,7.52L63.76,201.72z" fill="#ffffff" data-original="#ec3047" class=""/>
	<path style="" d="M193.2,332.6c-70.093-2.858-126.262-59.027-129.12-129.12v-8h60.8l0.4,7.52   c2.169,37.15,31.81,66.791,68.96,68.96l7.52,0.4v60.8L193.2,332.6z" fill="#ffffff" data-original="#ec3047" class=""/>
	<path style="" d="M271.92,201.72l-0.4-7.52c-2.133-37.166-31.794-66.827-68.96-68.96l-7.52-0.4v-60.8h8   c70.275,2.745,126.615,59.085,129.36,129.36v8L271.92,201.72z" fill="#ffffff" data-original="#ec3047" class=""/>
	<path style="" d="M194.96,272.12l7.52-0.4c37.166-2.133,66.827-31.794,68.96-68.96l0.4-7.52h60.8v8   c-2.745,70.275-59.085,126.615-129.36,129.36h-8L194.96,272.12z" fill="#ffffff" data-original="#ec3047" class=""/>
</g>
<path xmlns="http://www.w3.org/2000/svg" style="" d="M391.76,193.72h-57.52c-2.44-71.469-59.811-128.84-131.28-131.28V4.92c0-2.607-2.113-4.72-4.72-4.72  s-4.72,2.113-4.72,4.72v57.52c-71.469,2.44-128.84,59.811-131.28,131.28H4.72c-2.607,0-4.72,2.113-4.72,4.72s2.113,4.72,4.72,4.72  h57.92c2.632,71.164,59.716,128.248,130.88,130.88v57.92c0,2.607,2.113,4.72,4.72,4.72s4.72-2.113,4.72-4.72v-57.92  c71.32-2.428,128.635-59.567,131.28-130.88h57.92c2.607,0,4.72-2.113,4.72-4.72s-2.113-4.72-4.72-4.72l0,0L391.76,193.72z   M324.4,193.72h-44.96c-2.44-41.186-35.294-74.04-76.48-76.48V72.28C268.948,74.822,321.858,127.732,324.4,193.72z M235.12,203.16  h35.12c-2.302,36.161-31.119,64.978-67.28,67.28v-35.12c0-2.607-2.113-4.72-4.72-4.72s-4.72,2.113-4.72,4.72v35.12  c-36.161-2.302-64.978-31.119-67.28-67.28h34.88c2.607,0,4.72-2.113,4.72-4.72s-2.113-4.72-4.72-4.72l0,0h-34.88  c2.302-36.161,31.119-64.978,67.28-67.28v34.88c0,2.607,2.113,4.72,4.72,4.72s4.72-2.113,4.72-4.72l0,0v-34.88  c36.161,2.302,64.978,31.119,67.28,67.28h-35.12c-2.607,0-4.72,2.113-4.72,4.72S232.513,203.16,235.12,203.16z M193.52,72.28v44.96  c-41.186,2.441-74.04,35.294-76.48,76.48H72.08C74.622,127.732,127.532,74.822,193.52,72.28z M72.08,203.16h44.96  c2.441,41.186,35.294,74.04,76.48,76.48v44.96C127.532,322.058,74.622,269.148,72.08,203.16z M202.96,324.6v-44.96  c41.186-2.44,74.04-35.294,76.48-76.48h44.96C321.858,269.148,268.948,322.058,202.96,324.6z" fill="#ffffff" data-original="#484759" class=""/>
<g xmlns="http://www.w3.org/2000/svg">
</g>
<g xmlns="http://www.w3.org/2000/svg">
</g>
<g xmlns="http://www.w3.org/2000/svg">
</g>
<g xmlns="http://www.w3.org/2000/svg">
</g>
<g xmlns="http://www.w3.org/2000/svg">
</g>
<g xmlns="http://www.w3.org/2000/svg">
</g>
<g xmlns="http://www.w3.org/2000/svg">
</g>
<g xmlns="http://www.w3.org/2000/svg">
</g>
<g xmlns="http://www.w3.org/2000/svg">
</g>
<g xmlns="http://www.w3.org/2000/svg">
</g>
<g xmlns="http://www.w3.org/2000/svg">
</g>
<g xmlns="http://www.w3.org/2000/svg">
</g>
<g xmlns="http://www.w3.org/2000/svg">
</g>
<g xmlns="http://www.w3.org/2000/svg">
</g>
<g xmlns="http://www.w3.org/2000/svg">
</g>
</g></svg>
