<?xml version="1.0"?>
<svg xmlns="http://www.w3.org/2000/svg" xmlns:xlink="http://www.w3.org/1999/xlink" xmlns:svgjs="http://svgjs.com/svgjs" version="1.1" width="512" height="512" x="0" y="0" viewBox="0 0 512 512" style="enable-background:new 0 0 512 512" xml:space="preserve"><g>
<g xmlns="http://www.w3.org/2000/svg">
	<g>
		<path d="M256,209c-25.916,0-47,21.084-47,47s21.084,47,47,47s47-21.084,47-47S281.916,209,256,209z M256,273    c-9.374,0-17-7.626-17-17c0-9.374,7.626-17,17-17c9.374,0,17,7.626,17,17C273,265.374,265.374,273,256,273z" fill="#ffffff" data-original="#000000" style=""/>
	</g>
</g>
<g xmlns="http://www.w3.org/2000/svg">
	<g>
		<path d="M497,241h-18.516C471.072,129.966,382.034,40.928,271,33.516V15c0-8.284-6.716-15-15-15s-15,6.716-15,15v18.516    C129.966,40.928,40.928,129.966,33.516,241H15c-8.284,0-15,6.716-15,15s6.716,15,15,15h18.516    C40.928,382.034,129.966,471.072,241,478.484V497c0,8.284,6.716,15,15,15s15-6.716,15-15v-18.516    c111.034-7.412,200.072-96.45,207.484-207.484H497c8.284,0,15-6.716,15-15S505.284,241,497,241z M241,63.579v34.134    C165.276,104.832,104.832,165.276,97.713,241H63.579C70.877,146.513,146.513,70.877,241,63.579z M240.999,448.421    C146.513,441.123,70.877,365.487,63.579,271h34.133c7.12,75.724,67.563,136.168,143.287,143.287V448.421z M256,337.002    c-8.284,0-15,6.716-15,15v32.121C181.834,377.24,134.76,330.167,127.877,271H160c8.284,0,15-6.716,15-15s-6.716-15-15-15h-32.123    C134.76,181.833,181.834,134.76,241,127.877v32.12c0,8.284,6.716,15,15,15s15-6.716,15-15v-32.12    C330.166,134.76,377.24,181.833,384.123,241h-32.121c-8.284,0-15,6.716-15,15s6.716,15,15,15h32.121    C377.24,330.167,330.166,377.24,271,384.123v-32.121C271,343.718,264.284,337.002,256,337.002z M271,448.421v-34.134    c75.724-7.12,136.168-67.563,143.287-143.287h34.134C441.123,365.487,365.487,441.123,271,448.421z M414.287,241    C407.168,165.276,346.724,104.832,271,97.713V63.579C365.487,70.877,441.123,146.513,448.421,241H414.287z" fill="#ffffff" data-original="#000000" style=""/>
	</g>
</g>
<g xmlns="http://www.w3.org/2000/svg">
</g>
<g xmlns="http://www.w3.org/2000/svg">
</g>
<g xmlns="http://www.w3.org/2000/svg">
</g>
<g xmlns="http://www.w3.org/2000/svg">
</g>
<g xmlns="http://www.w3.org/2000/svg">
</g>
<g xmlns="http://www.w3.org/2000/svg">
</g>
<g xmlns="http://www.w3.org/2000/svg">
</g>
<g xmlns="http://www.w3.org/2000/svg">
</g>
<g xmlns="http://www.w3.org/2000/svg">
</g>
<g xmlns="http://www.w3.org/2000/svg">
</g>
<g xmlns="http://www.w3.org/2000/svg">
</g>
<g xmlns="http://www.w3.org/2000/svg">
</g>
<g xmlns="http://www.w3.org/2000/svg">
</g>
<g xmlns="http://www.w3.org/2000/svg">
</g>
<g xmlns="http://www.w3.org/2000/svg">
</g>
</g></svg>
