<?xml version="1.0"?>
<svg xmlns="http://www.w3.org/2000/svg" xmlns:xlink="http://www.w3.org/1999/xlink" xmlns:svgjs="http://svgjs.com/svgjs" version="1.1" width="512" height="512" x="0" y="0" viewBox="0 0 512 512" style="enable-background:new 0 0 512 512" xml:space="preserve" class=""><g><g xmlns="http://www.w3.org/2000/svg"><path d="m438.72 498.042c-1.834-39.809-20.9-76.33-51.217-102.196-33.804-28.841-69.593-41.008-82.278-44.814-2.19-.657-4.426-1.124-6.658-1.617-8.997-1.986-12.899-10.271-14.208-18.182-.097-.589.31-2.836.236-3.413-.837-6.496-.29-11.995-.29-11.995h-28.305-28.306s.547 5.501-.29 11.999c-.1.775.21 3.79.067 4.586-1.392 7.767-5.043 15.9-13.864 17.802-2.208.476-4.453 1.237-6.617 1.886-12.672 3.801-48.282 15.77-82.08 44.589-30.276 25.816-48.108 61.159-50.004 100.903-.223 4.669-.22 5.331.063 10.259h181.031 182.483c.278-4.847.449-5.21.237-9.807z" fill="#f6a96c" data-original="#f6a96c" style="" class=""/><path d="m439.391 512h-366.782c-.288-4.926-.288-9.739-.062-14.408 1.892-39.749 20.939-76.598 51.216-102.422 41.762-35.602 87.556-46.628 87.561-46.629 2.859-.288 5.235-1.203 7.199-2.551 3.379 12.054 11.937 23.292 29.634 30.069l5.764-5.113 2.078-1.833 3.765 3.321 4.077 3.625c18.231-4.946 26.204-17.932 29.601-29.954.016-.058.082-.082.132-.048 1.601 1.078 3.472 1.872 5.651 2.277 1.85.344 3.681.787 5.486 1.32 12.067 3.565 49.16 16.22 83.525 45.516 30.277 25.824 49.324 62.673 51.216 102.422.227 4.668.227 9.481-.061 14.408z" fill="#f27921" data-original="#fee45a" style="" class=""/><path d="m439.391 512h-22.739c.288-4.926.288-9.739.062-14.408-1.892-39.749-22.388-72.049-52.665-97.873-27.974-23.849-58.947-36.043-75.566-41.905.794-1.836 3.286-7.256 4.462-10.304l3.009.405c3.805.512 7.553 1.341 11.217 2.487 14.086 4.409 48.781 17.244 81.066 44.767 30.277 25.824 49.324 62.673 51.216 102.422.226 4.669.226 9.482-.062 14.409z" fill="#e17c33" data-original="#fcd827" style="" class=""/><g fill="#f6a96c"><path d="m145.702 212.388h-4.953c-14.938 0-27.047-12.11-27.047-27.047 0-14.938 12.11-27.047 27.047-27.047h4.953z" fill="#f6a96c" data-original="#f6a96c" style="" class=""/><path d="m366.298 212.388h4.953c14.938 0 27.047-12.11 27.047-27.047 0-14.938-12.11-27.047-27.047-27.047h-4.953z" fill="#f6a96c" data-original="#f6a96c" style="" class=""/></g><path d="m368.578 96.502v99.544l-1.606 5.357-.107 15.316c0 3.836-.193 7.632-.568 11.366-2.659 26.549-14.783 49.298-32.645 67.159-20.368 20.368-46.558 32.581-77.653 32.581-25.908 0-47.959-8.617-66.545-22.961-23.269-17.958-40.303-45.002-43.469-76.598-.375-3.735-.568-7.53-.568-11.366l-.615-16.223-1.382-4.63v-99.545z" fill="#fed2a4" data-original="#fed2a4" style="" class=""/><g fill="#596c76"><circle cx="256" cy="431.017" r="10.947" fill="#596c76" data-original="#596c76" style="" class=""/><circle cx="256" cy="470.632" r="10.947" fill="#596c76" data-original="#596c76" style="" class=""/></g><path d="m368.578 96.502.004 65.541v35.422l-1.611 3.938-.107 15.316c0 3.836-.188 7.633-.568 11.366-2.653 26.554-14.781 49.305-32.645 67.159-20.361 20.373-46.551 33.663-77.651 33.663-3.466 0-6.901-.154-10.284-.473 26.997-2.427 51.226-14.398 69.317-32.499 17.864-17.854 29.753-41.683 32.406-68.237.381-3.733.576-7.528.576-11.364v-119.832z" fill="#ffbd86" data-original="#ffbd86" style="" class=""/><g><g><path d="m209.985 204.965c-4.143 0-7.5-3.357-7.5-7.5v-13.837c0-4.143 3.357-7.5 7.5-7.5s7.5 3.357 7.5 7.5v13.837c0 4.142-3.357 7.5-7.5 7.5z" fill="#596c76" data-original="#596c76" style="" class=""/></g><g><path d="m302.014 204.965c-4.143 0-7.5-3.357-7.5-7.5v-13.837c0-4.143 3.357-7.5 7.5-7.5s7.5 3.357 7.5 7.5v13.837c0 4.142-3.357 7.5-7.5 7.5z" fill="#596c76" data-original="#596c76" style="" class=""/></g></g><path d="m368.578 196.046v20.287c0 3.836-.193 7.632-.568 11.366-2.659 26.549-14.543 50.378-32.405 68.239-20.368 20.368-48.51 32.973-79.606 32.973-58.344 0-106.317-44.38-112.01-101.212-.376-3.735-.568-7.53-.568-11.366v-20.287s23.268 35.441 84.355 45.123c18.691 2.962 37.756 2.962 56.447 0 61.087-9.681 84.355-45.123 84.355-45.123z" fill="#fed2a4" data-original="#f5f8f9" style="     COLOR: #ffbd86; " class=""/><path d="m368.583 196.043v20.291c0 3.836-.195 7.631-.576 11.364-2.653 26.554-14.542 50.383-32.406 68.237-20.363 20.374-48.501 32.972-79.601 32.972-1.152 0-2.293-.021-3.435-.062-.668-.01-1.337-.031-2.005-.072-.761-.031-1.532-.072-2.293-.134-.854-.051-1.707-.123-2.551-.206 26.997-2.427 51.226-14.398 69.317-32.499 17.864-17.854 29.753-41.683 32.406-68.237.381-3.733.576-7.528.576-11.364v-.401c14.377-10.458 20.568-19.889 20.568-19.889z" fill="#ffbd86" data-original="#d9e7ec" style="" class=""/><path d="m256.145 96.502h-112.929s15.356 53.174 112.929 52.245c97.573.928 112.648-52.245 112.648-52.245z" fill="#596c76" data-original="#596c76" style="" class=""/><path d="m368.793 96.5s-15.085 53.181-112.653 52.245c-52.378.504-81.02-14.593-96.323-28.683 16.98 9.77 42.526 17.668 80.671 17.309 68.432.648 100.24-21.702 106.859-40.86z" fill="#465a61" data-original="#465a61" style="" class=""/><g><path d="m361.471 30.138c-10.517-7.538-22.355-13.112-34.456-17.5-41.773-15.147-85.439-16.734-128.221-4.462-16.951 4.862-33.812 11.603-48.265 21.961-9.923 7.112-14.81 19.433-12.566 31.521l5.244 34.85h225.587l5.244-34.85c2.243-12.087-2.644-24.408-12.567-31.52z" fill="#f27921" data-original="#fee45a" style="" class=""/><path d="m374.034 61.657-5.245 34.854h-21.443l5.245-38.607c2.242-13.401-2.643-27.048-12.568-34.926-6.171-4.895-12.794-9.05-19.664-12.619 2.221.72 4.443 1.481 6.654 2.283 12.105 4.381 23.942 9.955 34.453 17.494 9.925 7.116 14.821 19.437 12.568 31.521z" fill="#e17c33" data-original="#fcd827" style="" class=""/></g><path d="m256 369.113-46.2 40.746c-11.216 9.892-28.894 2.433-29.635-12.504l-1.818-36.69c12.658-5.8 22.922-9.212 28.472-10.87 2.09-.624 4.224-1.087 6.358-1.538 9.776-2.066 13.155-12.074 14.231-20.432z" fill="#596c76" data-original="#596c76" style="" class=""/><path d="m333.653 360.665-1.818 36.69c-.74 14.936-18.419 22.395-29.635 12.504l-46.2-40.746 28.591-41.289c1.073 8.334 4.436 18.308 14.147 20.414 2.301.499 4.594.998 6.848 1.678 5.635 1.701 15.711 5.087 28.067 10.749z" fill="#596c76" data-original="#596c76" style="" class=""/><path d="m333.657 360.665-1.82 36.695c-.74 14.933-18.419 22.389-29.64 12.495l-8.546-7.538c8.711-.309 16.877-7.754 17.35-18.964l1.347-31.254c5.605 1.933 12.927 4.73 21.309 8.566z" fill="#465a61" data-original="#465a61" style="" class=""/><circle cx="256" cy="48.264" fill="#596c76" r="20.789" data-original="#596c76" style="" class=""/><path d="m276.785 48.267c0 11.477-9.307 20.785-20.785 20.785-7.508 0-14.079-3.98-17.73-9.945 1.296.257 2.643.391 4.021.391 11.488 0 20.795-9.307 20.795-20.785 0-3.98-1.111-7.693-3.055-10.85 9.554 1.881 16.754 10.294 16.754 20.404z" fill="#465a61" data-original="#465a61" style="" class=""/></g></g></svg>
