<svg enable-background="new 0 0 24 24" height="512" viewBox="0 0 24 24" width="512" xmlns="http://www.w3.org/2000/svg"><path d="m20 5.946h-20l2.994-5.395c.185-.335.552-.551.942-.551h12.129c.39 0 .757.216.941.551z" fill="#ffa726"/><path d="m10.811 0 1.081 5.946h-3.784l1.081-5.946z" fill="#795548"/><path d="m12 17.625v-3.375c0-1.165.738-2.208 1.836-2.594l4.248-1.499c.293-.104.602-.157.916-.157.315 0 .623.054.92.159l.08.028v-4.241h-20v13.161c0 .493.399.893.893.893h11.494c-.243-.731-.387-1.522-.387-2.375z" fill="#ffb74d"/><path d="m9.189 0h-5.253c-.39 0-.757.216-.941.551l-2.995 5.395h8.108z" fill="#de9121"/><path d="m10 0h-.811l-1.081 5.946h1.892z" fill="#694a3f"/><path d="m10 5.946h-1.892-8.108v13.161c0 .493.399.893.893.893h9.107z" fill="#de9f43"/><path d="m19 24c-.104 0-.206-.021-.303-.064-.191-.084-4.697-2.12-4.697-6.311v-3.375c0-.318.2-.602.5-.707l4.25-1.5c.162-.058.338-.058.5 0l4.25 1.5c.3.105.5.389.5.707v3.375c0 4.191-4.506 6.227-4.697 6.311-.097.042-.2.064-.303.064z" fill="#2196f3"/><path d="m18.591 20.019-.021-.001c-.211-.006-.41-.101-.548-.261l-1.387-1.615c-.27-.314-.233-.788.081-1.058.315-.27.787-.233 1.058.08l.85.99 2.041-2.118c.289-.299.764-.306 1.061-.02.298.288.307.762.02 1.061l-2.613 2.711c-.144.148-.339.231-.542.231z" fill="#fff"/><path d="m19 12c-.084 0-.169.014-.25.043l-4.25 1.5c-.3.105-.5.389-.5.707v3.375c0 4.191 4.506 6.227 4.697 6.311.097.042.199.064.303.064v-4.102c-.121.079-.263.121-.409.121l-.021-.001c-.211-.006-.41-.101-.548-.261l-1.387-1.615c-.27-.314-.233-.788.081-1.058.142-.122.316-.181.488-.181.211 0 .421.089.569.261l.85.99.377-.39z" fill="#1d83d4"/><path d="m17.204 16.904c-.173 0-.346.059-.488.181-.314.27-.351.743-.081 1.058l1.387 1.615c.138.16.337.255.548.261l.021.001c.146 0 .288-.043.409-.121v-2.134l-.377.391-.85-.99c-.148-.173-.358-.262-.569-.262z" fill="#dedede"/></svg>